<?xml version="1.0" encoding="iso-8859-1"?>
<!-- Uploaded to: SVG Repo, www.svgrepo.com, Generator: SVG Repo Mixer Tools -->
<svg fill="#000000" version="1.1" id="Layer_1" xmlns="http://www.w3.org/2000/svg" xmlns:xlink="http://www.w3.org/1999/xlink" 
	 viewBox="0 0 512 512" xml:space="preserve">
<g>
	<g>
		<g>
			<polygon points="267.13,473.043 267.13,439.652 300.522,439.652 300.522,406.261 100.174,406.261 100.174,439.652 
				133.565,439.652 133.565,473.043 166.957,473.043 166.957,439.652 233.739,439.652 233.739,473.043 166.957,473.043 
				166.957,506.435 512,506.435 512,473.043 			"/>
			<rect x="367.304" y="306.087" width="33.391" height="33.391"/>
			<rect x="400.696" y="272.696" width="33.391" height="33.391"/>
			<rect x="467.478" y="172.522" width="33.391" height="66.783"/>
			<rect x="434.087" y="239.304" width="33.391" height="33.391"/>
			<rect x="133.565" y="139.13" width="33.391" height="33.391"/>
			<rect x="166.957" y="105.739" width="33.391" height="33.391"/>
			<rect x="200.348" y="72.348" width="33.391" height="33.391"/>
			<rect x="267.13" y="5.565" width="66.783" height="33.391"/>
			<rect x="233.739" y="38.957" width="33.391" height="33.391"/>
			<rect x="333.913" y="38.957" width="33.391" height="33.391"/>
			<rect x="367.304" y="72.348" width="33.391" height="33.391"/>
			<rect x="400.696" y="105.739" width="33.391" height="33.391"/>
			<rect x="434.087" y="139.13" width="33.391" height="33.391"/>
			<polygon points="233.739,205.913 200.348,205.913 200.348,172.522 166.957,172.522 166.957,205.913 133.565,205.913 
				133.565,172.522 100.174,172.522 100.174,205.913 66.783,205.913 66.783,239.304 233.739,239.304 			"/>
			<polygon points="300.522,306.087 300.522,272.696 267.13,272.696 267.13,239.304 233.739,239.304 233.739,272.696 
				66.783,272.696 66.783,239.304 33.391,239.304 33.391,272.696 0,272.696 0,339.478 33.391,339.478 33.391,306.087 			"/>
			<polygon points="300.522,372.87 300.522,406.261 333.913,406.261 333.913,372.87 367.304,372.87 367.304,339.478 
				333.913,339.478 333.913,306.087 300.522,306.087 300.522,339.478 33.391,339.478 33.391,372.87 66.783,372.87 66.783,406.261 
				100.174,406.261 100.174,372.87 			"/>
		</g>
	</g>
</g>
</svg>